<mxfile host="Electron" modified="2023-06-03T20:22:48.386Z" agent="Mozilla/5.0 (Windows NT 10.0; Win64; x64) AppleWebKit/537.36 (KHTML, like Gecko) draw.io/21.2.8 Chrome/112.0.5615.165 Electron/24.2.0 Safari/537.36" etag="ng7GyRDDqYJW1mwTMHD0" version="21.2.8" type="device">
  <diagram name="Page-1" id="HAyBXV-taml6PAoLO6-E">
    <mxGraphModel dx="1418" dy="848" grid="1" gridSize="10" guides="1" tooltips="1" connect="1" arrows="1" fold="1" page="0" pageScale="1" pageWidth="827" pageHeight="1169" math="1" shadow="0">
      <root>
        <mxCell id="0" />
        <mxCell id="1" parent="0" />
        <mxCell id="-DyHvY6kDZJPBN4xPlUY-3" style="edgeStyle=orthogonalEdgeStyle;rounded=0;orthogonalLoop=1;jettySize=auto;html=1;exitX=1;exitY=0.5;exitDx=0;exitDy=0;entryX=0;entryY=0.5;entryDx=0;entryDy=0;" parent="1" source="-DyHvY6kDZJPBN4xPlUY-1" target="-DyHvY6kDZJPBN4xPlUY-2" edge="1">
          <mxGeometry relative="1" as="geometry" />
        </mxCell>
        <mxCell id="-DyHvY6kDZJPBN4xPlUY-1" value="$$\text{PC}$$" style="rounded=0;whiteSpace=wrap;html=1;rotation=0;" parent="1" vertex="1">
          <mxGeometry x="140" y="280" width="40" height="280" as="geometry" />
        </mxCell>
        <mxCell id="-DyHvY6kDZJPBN4xPlUY-10" style="edgeStyle=orthogonalEdgeStyle;rounded=0;orthogonalLoop=1;jettySize=auto;html=1;exitX=1;exitY=0.25;exitDx=0;exitDy=0;entryX=0;entryY=0.25;entryDx=0;entryDy=0;" parent="1" source="-DyHvY6kDZJPBN4xPlUY-2" target="-DyHvY6kDZJPBN4xPlUY-4" edge="1">
          <mxGeometry relative="1" as="geometry" />
        </mxCell>
        <mxCell id="-DyHvY6kDZJPBN4xPlUY-11" style="edgeStyle=orthogonalEdgeStyle;rounded=0;orthogonalLoop=1;jettySize=auto;html=1;exitX=1;exitY=0.5;exitDx=0;exitDy=0;entryX=0;entryY=0.5;entryDx=0;entryDy=0;" parent="1" source="-DyHvY6kDZJPBN4xPlUY-2" target="-DyHvY6kDZJPBN4xPlUY-4" edge="1">
          <mxGeometry relative="1" as="geometry" />
        </mxCell>
        <mxCell id="-DyHvY6kDZJPBN4xPlUY-2" value="$$\text{PM}$$" style="rounded=0;whiteSpace=wrap;html=1;rotation=0;" parent="1" vertex="1">
          <mxGeometry x="240" y="280" width="60" height="280" as="geometry" />
        </mxCell>
        <mxCell id="-DyHvY6kDZJPBN4xPlUY-35" style="edgeStyle=orthogonalEdgeStyle;rounded=0;orthogonalLoop=1;jettySize=auto;html=1;exitX=0.5;exitY=0;exitDx=0;exitDy=0;entryX=0;entryY=0.25;entryDx=0;entryDy=0;" parent="1" source="-DyHvY6kDZJPBN4xPlUY-93" target="-DyHvY6kDZJPBN4xPlUY-34" edge="1">
          <mxGeometry relative="1" as="geometry">
            <mxPoint x="650" y="350" as="targetPoint" />
            <Array as="points">
              <mxPoint x="650" y="350" />
              <mxPoint x="650" y="374" />
            </Array>
          </mxGeometry>
        </mxCell>
        <mxCell id="-DyHvY6kDZJPBN4xPlUY-37" style="edgeStyle=orthogonalEdgeStyle;rounded=0;orthogonalLoop=1;jettySize=auto;html=1;exitX=1;exitY=0.5;exitDx=0;exitDy=0;entryX=0;entryY=0.75;entryDx=0;entryDy=0;" parent="1" source="-DyHvY6kDZJPBN4xPlUY-4" target="-DyHvY6kDZJPBN4xPlUY-63" edge="1">
          <mxGeometry relative="1" as="geometry">
            <mxPoint x="590" y="420" as="targetPoint" />
            <Array as="points">
              <mxPoint x="580" y="420" />
              <mxPoint x="580" y="545" />
            </Array>
          </mxGeometry>
        </mxCell>
        <mxCell id="-DyHvY6kDZJPBN4xPlUY-4" value="$$\text{Registers}$$" style="rounded=0;whiteSpace=wrap;html=1;rotation=0;" parent="1" vertex="1">
          <mxGeometry x="400" y="280" width="150" height="280" as="geometry" />
        </mxCell>
        <mxCell id="-DyHvY6kDZJPBN4xPlUY-7" style="rounded=0;orthogonalLoop=1;jettySize=auto;html=1;exitX=0;exitY=1;exitDx=0;exitDy=0;endArrow=oval;endFill=1;startArrow=classic;startFill=1;" parent="1" source="-DyHvY6kDZJPBN4xPlUY-6" edge="1">
          <mxGeometry relative="1" as="geometry">
            <mxPoint x="210" y="420" as="targetPoint" />
            <Array as="points">
              <mxPoint x="210" y="130" />
            </Array>
          </mxGeometry>
        </mxCell>
        <mxCell id="-DyHvY6kDZJPBN4xPlUY-8" style="rounded=0;orthogonalLoop=1;jettySize=auto;html=1;exitX=0;exitY=0;exitDx=0;exitDy=0;endArrow=none;endFill=0;startArrow=classic;startFill=1;entryX=1;entryY=0.5;entryDx=0;entryDy=0;" parent="1" source="-DyHvY6kDZJPBN4xPlUY-6" target="-DyHvY6kDZJPBN4xPlUY-9" edge="1">
          <mxGeometry relative="1" as="geometry">
            <mxPoint x="190" y="70" as="targetPoint" />
            <Array as="points">
              <mxPoint x="210" y="60" />
            </Array>
          </mxGeometry>
        </mxCell>
        <mxCell id="-DyHvY6kDZJPBN4xPlUY-106" style="edgeStyle=orthogonalEdgeStyle;rounded=0;orthogonalLoop=1;jettySize=auto;html=1;exitX=1;exitY=0.5;exitDx=0;exitDy=0;entryX=0;entryY=0.5;entryDx=0;entryDy=0;" parent="1" source="-DyHvY6kDZJPBN4xPlUY-6" target="-DyHvY6kDZJPBN4xPlUY-94" edge="1">
          <mxGeometry relative="1" as="geometry">
            <Array as="points">
              <mxPoint x="580" y="95" />
              <mxPoint x="580" y="327" />
            </Array>
          </mxGeometry>
        </mxCell>
        <mxCell id="-DyHvY6kDZJPBN4xPlUY-6" value="&lt;font style=&quot;font-size: 17px;&quot;&gt;$$+$$&lt;/font&gt;" style="ellipse;whiteSpace=wrap;html=1;aspect=fixed;" parent="1" vertex="1">
          <mxGeometry x="230" y="70" width="50" height="50" as="geometry" />
        </mxCell>
        <mxCell id="-DyHvY6kDZJPBN4xPlUY-9" value="$$4$$" style="text;html=1;strokeColor=none;fillColor=none;align=center;verticalAlign=middle;whiteSpace=wrap;rounded=0;" parent="1" vertex="1">
          <mxGeometry x="170" y="50" width="20" height="20" as="geometry" />
        </mxCell>
        <mxCell id="-DyHvY6kDZJPBN4xPlUY-13" style="edgeStyle=orthogonalEdgeStyle;rounded=0;orthogonalLoop=1;jettySize=auto;html=1;exitX=0.5;exitY=0;exitDx=0;exitDy=0;entryX=0;entryY=0.75;entryDx=0;entryDy=0;" parent="1" source="-DyHvY6kDZJPBN4xPlUY-12" target="-DyHvY6kDZJPBN4xPlUY-4" edge="1">
          <mxGeometry relative="1" as="geometry" />
        </mxCell>
        <mxCell id="-DyHvY6kDZJPBN4xPlUY-14" style="edgeStyle=orthogonalEdgeStyle;rounded=0;orthogonalLoop=1;jettySize=auto;html=1;exitX=0.25;exitY=1;exitDx=0;exitDy=0;endArrow=oval;endFill=1;startArrow=classic;startFill=1;" parent="1" source="-DyHvY6kDZJPBN4xPlUY-12" edge="1">
          <mxGeometry relative="1" as="geometry">
            <mxPoint x="330" y="420" as="targetPoint" />
          </mxGeometry>
        </mxCell>
        <mxCell id="-DyHvY6kDZJPBN4xPlUY-15" style="edgeStyle=orthogonalEdgeStyle;rounded=0;orthogonalLoop=1;jettySize=auto;html=1;exitX=0.75;exitY=1;exitDx=0;exitDy=0;entryX=1;entryY=0.75;entryDx=0;entryDy=0;endArrow=none;endFill=0;startArrow=classic;startFill=1;" parent="1" source="-DyHvY6kDZJPBN4xPlUY-12" target="-DyHvY6kDZJPBN4xPlUY-2" edge="1">
          <mxGeometry relative="1" as="geometry" />
        </mxCell>
        <mxCell id="-DyHvY6kDZJPBN4xPlUY-12" value="" style="shape=trapezoid;perimeter=trapezoidPerimeter;whiteSpace=wrap;html=1;fixedSize=1;rotation=90;" parent="1" vertex="1">
          <mxGeometry x="317.5" y="477.5" width="90" height="25" as="geometry" />
        </mxCell>
        <mxCell id="-DyHvY6kDZJPBN4xPlUY-19" style="edgeStyle=orthogonalEdgeStyle;rounded=0;orthogonalLoop=1;jettySize=auto;html=1;exitX=0;exitY=0.75;exitDx=0;exitDy=0;entryX=0.998;entryY=0.055;entryDx=0;entryDy=0;entryPerimeter=0;endArrow=none;endFill=0;startArrow=classic;startFill=1;" parent="1" source="-DyHvY6kDZJPBN4xPlUY-16" target="-DyHvY6kDZJPBN4xPlUY-2" edge="1">
          <mxGeometry relative="1" as="geometry">
            <Array as="points">
              <mxPoint x="360" y="225" />
              <mxPoint x="360" y="295" />
            </Array>
          </mxGeometry>
        </mxCell>
        <mxCell id="-DyHvY6kDZJPBN4xPlUY-20" style="edgeStyle=orthogonalEdgeStyle;rounded=0;orthogonalLoop=1;jettySize=auto;html=1;exitX=0;exitY=0.25;exitDx=0;exitDy=0;endArrow=none;endFill=0;startArrow=classic;startFill=1;" parent="1" source="-DyHvY6kDZJPBN4xPlUY-16" edge="1">
          <mxGeometry relative="1" as="geometry">
            <mxPoint x="360" y="195" as="targetPoint" />
          </mxGeometry>
        </mxCell>
        <mxCell id="_HiC3QpoWGhACgBkYKgx-3" style="edgeStyle=orthogonalEdgeStyle;rounded=0;orthogonalLoop=1;jettySize=auto;html=1;exitX=1;exitY=0.5;exitDx=0;exitDy=0;entryX=0;entryY=0.25;entryDx=0;entryDy=0;" parent="1" source="-DyHvY6kDZJPBN4xPlUY-16" target="_HiC3QpoWGhACgBkYKgx-1" edge="1">
          <mxGeometry relative="1" as="geometry" />
        </mxCell>
        <mxCell id="-DyHvY6kDZJPBN4xPlUY-16" value="$$\text{Decoder}$$" style="rounded=1;whiteSpace=wrap;html=1;" parent="1" vertex="1">
          <mxGeometry x="415" y="180" width="120" height="60" as="geometry" />
        </mxCell>
        <mxCell id="-DyHvY6kDZJPBN4xPlUY-18" style="edgeStyle=orthogonalEdgeStyle;rounded=0;orthogonalLoop=1;jettySize=auto;html=1;exitX=0;exitY=0.5;exitDx=0;exitDy=0;entryX=0.997;entryY=0.964;entryDx=0;entryDy=0;entryPerimeter=0;endArrow=none;endFill=0;startArrow=classic;startFill=1;" parent="1" source="-DyHvY6kDZJPBN4xPlUY-17" target="-DyHvY6kDZJPBN4xPlUY-2" edge="1">
          <mxGeometry relative="1" as="geometry" />
        </mxCell>
        <mxCell id="-DyHvY6kDZJPBN4xPlUY-42" style="edgeStyle=orthogonalEdgeStyle;rounded=0;orthogonalLoop=1;jettySize=auto;html=1;entryX=0.75;entryY=1;entryDx=0;entryDy=0;startArrow=oval;startFill=1;" parent="1" target="-DyHvY6kDZJPBN4xPlUY-38" edge="1">
          <mxGeometry relative="1" as="geometry">
            <mxPoint x="570" y="465" as="sourcePoint" />
            <Array as="points">
              <mxPoint x="573" y="465" />
              <mxPoint x="573" y="465" />
            </Array>
          </mxGeometry>
        </mxCell>
        <mxCell id="-DyHvY6kDZJPBN4xPlUY-17" value="$$\text{Sign Extend}$$" style="rounded=1;whiteSpace=wrap;html=1;" parent="1" vertex="1">
          <mxGeometry x="400" y="600" width="150" height="60" as="geometry" />
        </mxCell>
        <mxCell id="-DyHvY6kDZJPBN4xPlUY-25" value="&lt;font style=&quot;font-size: 10px;&quot;&gt;$$\text{R}_{s,addr}$$&lt;/font&gt;" style="text;html=1;strokeColor=none;fillColor=none;align=center;verticalAlign=middle;whiteSpace=wrap;rounded=0;" parent="1" vertex="1">
          <mxGeometry x="400" y="342" width="40" height="15" as="geometry" />
        </mxCell>
        <mxCell id="-DyHvY6kDZJPBN4xPlUY-26" value="&lt;font style=&quot;font-size: 10px;&quot;&gt;$$\text{R}_{d,addr}$$&lt;/font&gt;" style="text;html=1;strokeColor=none;fillColor=none;align=center;verticalAlign=middle;whiteSpace=wrap;rounded=0;" parent="1" vertex="1">
          <mxGeometry x="400" y="412.5" width="40" height="15" as="geometry" />
        </mxCell>
        <mxCell id="-DyHvY6kDZJPBN4xPlUY-27" value="&lt;font style=&quot;font-size: 10px;&quot;&gt;$$\text{W}_{addr}$$&lt;/font&gt;" style="text;html=1;strokeColor=none;fillColor=none;align=center;verticalAlign=middle;whiteSpace=wrap;rounded=0;" parent="1" vertex="1">
          <mxGeometry x="400" y="482.5" width="40" height="15" as="geometry" />
        </mxCell>
        <mxCell id="-DyHvY6kDZJPBN4xPlUY-28" value="&lt;font style=&quot;font-size: 10px;&quot;&gt;$$\text{R}_{s,data}$$&lt;/font&gt;" style="text;html=1;strokeColor=none;fillColor=none;align=center;verticalAlign=middle;whiteSpace=wrap;rounded=0;" parent="1" vertex="1">
          <mxGeometry x="510" y="342" width="40" height="15" as="geometry" />
        </mxCell>
        <mxCell id="-DyHvY6kDZJPBN4xPlUY-29" value="&lt;font style=&quot;font-size: 10px;&quot;&gt;$$\text{R}_{d,data}$$&lt;/font&gt;" style="text;html=1;strokeColor=none;fillColor=none;align=center;verticalAlign=middle;whiteSpace=wrap;rounded=0;" parent="1" vertex="1">
          <mxGeometry x="510" y="412.5" width="40" height="15" as="geometry" />
        </mxCell>
        <mxCell id="-DyHvY6kDZJPBN4xPlUY-30" value="&lt;font style=&quot;font-size: 13px;&quot;&gt;$$0$$&lt;/font&gt;" style="text;html=1;strokeColor=none;fillColor=none;align=center;verticalAlign=middle;whiteSpace=wrap;rounded=0;fontSize=13;" parent="1" vertex="1">
          <mxGeometry x="350" y="505.5" width="20" height="15" as="geometry" />
        </mxCell>
        <mxCell id="-DyHvY6kDZJPBN4xPlUY-31" value="&lt;font style=&quot;font-size: 13px;&quot;&gt;$$1$$&lt;/font&gt;" style="text;html=1;strokeColor=none;fillColor=none;align=center;verticalAlign=middle;whiteSpace=wrap;rounded=0;fontSize=13;" parent="1" vertex="1">
          <mxGeometry x="350" y="460.5" width="20" height="15" as="geometry" />
        </mxCell>
        <mxCell id="-DyHvY6kDZJPBN4xPlUY-61" style="edgeStyle=orthogonalEdgeStyle;rounded=0;orthogonalLoop=1;jettySize=auto;html=1;exitX=1;exitY=0.25;exitDx=0;exitDy=0;" parent="1" source="-DyHvY6kDZJPBN4xPlUY-34" edge="1">
          <mxGeometry relative="1" as="geometry">
            <mxPoint x="830" y="371.73076923076917" as="targetPoint" />
          </mxGeometry>
        </mxCell>
        <mxCell id="-DyHvY6kDZJPBN4xPlUY-64" style="edgeStyle=orthogonalEdgeStyle;rounded=0;orthogonalLoop=1;jettySize=auto;html=1;entryX=0;entryY=0.25;entryDx=0;entryDy=0;startArrow=oval;startFill=1;" parent="1" target="-DyHvY6kDZJPBN4xPlUY-63" edge="1">
          <mxGeometry relative="1" as="geometry">
            <mxPoint x="890" y="425" as="sourcePoint" />
          </mxGeometry>
        </mxCell>
        <mxCell id="-DyHvY6kDZJPBN4xPlUY-71" style="edgeStyle=orthogonalEdgeStyle;rounded=0;orthogonalLoop=1;jettySize=auto;html=1;exitX=1;exitY=0.75;exitDx=0;exitDy=0;entryX=0;entryY=0.5;entryDx=0;entryDy=0;" parent="1" source="-DyHvY6kDZJPBN4xPlUY-34" target="-DyHvY6kDZJPBN4xPlUY-69" edge="1">
          <mxGeometry relative="1" as="geometry">
            <Array as="points">
              <mxPoint x="890" y="425" />
              <mxPoint x="890" y="283" />
            </Array>
          </mxGeometry>
        </mxCell>
        <mxCell id="-DyHvY6kDZJPBN4xPlUY-72" style="edgeStyle=orthogonalEdgeStyle;rounded=0;orthogonalLoop=1;jettySize=auto;html=1;entryX=0;entryY=0.5;entryDx=0;entryDy=0;startArrow=oval;startFill=1;" parent="1" target="-DyHvY6kDZJPBN4xPlUY-70" edge="1">
          <mxGeometry relative="1" as="geometry">
            <mxPoint x="890" y="350" as="sourcePoint" />
            <Array as="points">
              <mxPoint x="1000" y="350" />
              <mxPoint x="1000" y="283" />
            </Array>
          </mxGeometry>
        </mxCell>
        <mxCell id="-DyHvY6kDZJPBN4xPlUY-34" value="&lt;font style=&quot;font-size: 14px;&quot;&gt;$$\text{ALU}$$&lt;/font&gt;" style="shape=step;perimeter=stepPerimeter;whiteSpace=wrap;html=1;fixedSize=1;" parent="1" vertex="1">
          <mxGeometry x="681" y="336.5" width="120" height="123.5" as="geometry" />
        </mxCell>
        <mxCell id="-DyHvY6kDZJPBN4xPlUY-43" style="edgeStyle=orthogonalEdgeStyle;rounded=0;orthogonalLoop=1;jettySize=auto;html=1;exitX=0.5;exitY=0;exitDx=0;exitDy=0;entryX=0;entryY=0.75;entryDx=0;entryDy=0;" parent="1" source="-DyHvY6kDZJPBN4xPlUY-38" target="-DyHvY6kDZJPBN4xPlUY-34" edge="1">
          <mxGeometry relative="1" as="geometry">
            <mxPoint x="670" y="430" as="targetPoint" />
            <Array as="points">
              <mxPoint x="650" y="443" />
              <mxPoint x="650" y="423" />
            </Array>
          </mxGeometry>
        </mxCell>
        <mxCell id="-DyHvY6kDZJPBN4xPlUY-65" style="edgeStyle=orthogonalEdgeStyle;rounded=0;orthogonalLoop=1;jettySize=auto;html=1;exitX=0.25;exitY=1;exitDx=0;exitDy=0;endArrow=oval;endFill=1;startArrow=classic;startFill=1;" parent="1" source="-DyHvY6kDZJPBN4xPlUY-38" edge="1">
          <mxGeometry relative="1" as="geometry">
            <mxPoint x="580" y="420" as="targetPoint" />
          </mxGeometry>
        </mxCell>
        <mxCell id="-DyHvY6kDZJPBN4xPlUY-38" value="" style="shape=trapezoid;perimeter=trapezoidPerimeter;whiteSpace=wrap;html=1;fixedSize=1;rotation=90;" parent="1" vertex="1">
          <mxGeometry x="568" y="430" width="90" height="25" as="geometry" />
        </mxCell>
        <mxCell id="-DyHvY6kDZJPBN4xPlUY-39" value="&lt;font style=&quot;font-size: 13px;&quot;&gt;$$0$$&lt;/font&gt;" style="text;html=1;strokeColor=none;fillColor=none;align=center;verticalAlign=middle;whiteSpace=wrap;rounded=0;fontSize=13;" parent="1" vertex="1">
          <mxGeometry x="601" y="412.5" width="20" height="15" as="geometry" />
        </mxCell>
        <mxCell id="-DyHvY6kDZJPBN4xPlUY-41" value="&lt;font style=&quot;font-size: 13px;&quot;&gt;$$1$$&lt;/font&gt;" style="text;html=1;strokeColor=none;fillColor=none;align=center;verticalAlign=middle;whiteSpace=wrap;rounded=0;fontSize=13;" parent="1" vertex="1">
          <mxGeometry x="601" y="457" width="20" height="15" as="geometry" />
        </mxCell>
        <mxCell id="-DyHvY6kDZJPBN4xPlUY-85" style="edgeStyle=orthogonalEdgeStyle;rounded=0;orthogonalLoop=1;jettySize=auto;html=1;exitX=1;exitY=0.5;exitDx=0;exitDy=0;entryX=0;entryY=0.5;entryDx=0;entryDy=0;" parent="1" source="-DyHvY6kDZJPBN4xPlUY-63" target="-DyHvY6kDZJPBN4xPlUY-87" edge="1">
          <mxGeometry relative="1" as="geometry">
            <Array as="points">
              <mxPoint x="1080" y="480" />
              <mxPoint x="1119" y="480" />
            </Array>
          </mxGeometry>
        </mxCell>
        <mxCell id="-DyHvY6kDZJPBN4xPlUY-63" value="$$\text{Data Memory}$$" style="rounded=0;whiteSpace=wrap;html=1;" parent="1" vertex="1">
          <mxGeometry x="920" y="364.75" width="160" height="240.5" as="geometry" />
        </mxCell>
        <mxCell id="-DyHvY6kDZJPBN4xPlUY-66" value="&lt;font style=&quot;font-size: 10px;&quot;&gt;$$\text{W}_{d,addr}$$&lt;/font&gt;" style="text;html=1;strokeColor=none;fillColor=none;align=center;verticalAlign=middle;whiteSpace=wrap;rounded=0;" parent="1" vertex="1">
          <mxGeometry x="920" y="415" width="40" height="15" as="geometry" />
        </mxCell>
        <mxCell id="-DyHvY6kDZJPBN4xPlUY-67" value="&lt;font style=&quot;font-size: 10px;&quot;&gt;$$\text{W}_{d,data}$$&lt;/font&gt;" style="text;html=1;strokeColor=none;fillColor=none;align=center;verticalAlign=middle;whiteSpace=wrap;rounded=0;" parent="1" vertex="1">
          <mxGeometry x="920" y="538" width="40" height="15" as="geometry" />
        </mxCell>
        <mxCell id="-DyHvY6kDZJPBN4xPlUY-82" style="edgeStyle=orthogonalEdgeStyle;rounded=0;orthogonalLoop=1;jettySize=auto;html=1;exitX=1;exitY=0.5;exitDx=0;exitDy=0;entryX=0;entryY=0.5;entryDx=0;entryDy=0;" parent="1" source="-DyHvY6kDZJPBN4xPlUY-69" target="-DyHvY6kDZJPBN4xPlUY-90" edge="1">
          <mxGeometry relative="1" as="geometry">
            <mxPoint x="1087.5" y="242.5" as="targetPoint" />
            <Array as="points">
              <mxPoint x="990" y="283" />
              <mxPoint x="990" y="240" />
              <mxPoint x="1130" y="240" />
              <mxPoint x="1130" y="405" />
              <mxPoint x="1158" y="405" />
            </Array>
          </mxGeometry>
        </mxCell>
        <mxCell id="-DyHvY6kDZJPBN4xPlUY-69" value="$$\text{High}$$" style="rounded=0;whiteSpace=wrap;html=1;" parent="1" vertex="1">
          <mxGeometry x="920" y="250" width="50" height="65.75" as="geometry" />
        </mxCell>
        <mxCell id="-DyHvY6kDZJPBN4xPlUY-91" style="edgeStyle=orthogonalEdgeStyle;rounded=0;orthogonalLoop=1;jettySize=auto;html=1;exitX=1;exitY=0.5;exitDx=0;exitDy=0;entryX=0;entryY=0.5;entryDx=0;entryDy=0;" parent="1" source="-DyHvY6kDZJPBN4xPlUY-70" target="-DyHvY6kDZJPBN4xPlUY-89" edge="1">
          <mxGeometry relative="1" as="geometry">
            <Array as="points">
              <mxPoint x="1120" y="283" />
              <mxPoint x="1120" y="430" />
            </Array>
          </mxGeometry>
        </mxCell>
        <mxCell id="-DyHvY6kDZJPBN4xPlUY-70" value="$$\text{Low}$$" style="rounded=0;whiteSpace=wrap;html=1;" parent="1" vertex="1">
          <mxGeometry x="1020" y="250" width="50" height="65.75" as="geometry" />
        </mxCell>
        <mxCell id="-DyHvY6kDZJPBN4xPlUY-86" style="edgeStyle=orthogonalEdgeStyle;rounded=0;orthogonalLoop=1;jettySize=auto;html=1;exitX=0;exitY=0.5;exitDx=0;exitDy=0;endArrow=oval;endFill=1;startArrow=classic;startFill=1;" parent="1" source="-DyHvY6kDZJPBN4xPlUY-88" edge="1">
          <mxGeometry relative="1" as="geometry">
            <mxPoint x="1000" y="350" as="targetPoint" />
            <Array as="points">
              <mxPoint x="1110" y="455" />
              <mxPoint x="1110" y="350" />
            </Array>
          </mxGeometry>
        </mxCell>
        <mxCell id="-DyHvY6kDZJPBN4xPlUY-92" style="edgeStyle=orthogonalEdgeStyle;rounded=0;orthogonalLoop=1;jettySize=auto;html=1;exitX=0.5;exitY=0;exitDx=0;exitDy=0;entryX=0.5;entryY=1;entryDx=0;entryDy=0;" parent="1" source="-DyHvY6kDZJPBN4xPlUY-83" target="-DyHvY6kDZJPBN4xPlUY-4" edge="1">
          <mxGeometry relative="1" as="geometry">
            <Array as="points">
              <mxPoint x="1210" y="442" />
              <mxPoint x="1210" y="640" />
              <mxPoint x="854" y="640" />
              <mxPoint x="854" y="580" />
              <mxPoint x="475" y="580" />
            </Array>
          </mxGeometry>
        </mxCell>
        <mxCell id="-DyHvY6kDZJPBN4xPlUY-83" value="" style="shape=trapezoid;perimeter=trapezoidPerimeter;whiteSpace=wrap;html=1;fixedSize=1;rotation=90;" parent="1" vertex="1">
          <mxGeometry x="1115" y="430" width="110" height="25" as="geometry" />
        </mxCell>
        <mxCell id="-DyHvY6kDZJPBN4xPlUY-87" value="&lt;font style=&quot;font-size: 10px;&quot;&gt;$$0$$&lt;/font&gt;" style="text;html=1;strokeColor=none;fillColor=none;align=center;verticalAlign=middle;whiteSpace=wrap;rounded=0;" parent="1" vertex="1">
          <mxGeometry x="1158" y="472.37" width="10" height="15" as="geometry" />
        </mxCell>
        <mxCell id="-DyHvY6kDZJPBN4xPlUY-88" value="&lt;font style=&quot;font-size: 10px;&quot;&gt;$$1$$&lt;/font&gt;" style="text;html=1;strokeColor=none;fillColor=none;align=center;verticalAlign=middle;whiteSpace=wrap;rounded=0;" parent="1" vertex="1">
          <mxGeometry x="1158" y="447.87" width="10" height="15" as="geometry" />
        </mxCell>
        <mxCell id="-DyHvY6kDZJPBN4xPlUY-89" value="&lt;font style=&quot;font-size: 10px;&quot;&gt;$$2$$&lt;/font&gt;" style="text;html=1;strokeColor=none;fillColor=none;align=center;verticalAlign=middle;whiteSpace=wrap;rounded=0;" parent="1" vertex="1">
          <mxGeometry x="1158" y="422.12" width="10" height="15" as="geometry" />
        </mxCell>
        <mxCell id="-DyHvY6kDZJPBN4xPlUY-90" value="&lt;font style=&quot;font-size: 10px;&quot;&gt;$$3$$&lt;/font&gt;" style="text;html=1;strokeColor=none;fillColor=none;align=center;verticalAlign=middle;whiteSpace=wrap;rounded=0;" parent="1" vertex="1">
          <mxGeometry x="1158" y="397.62" width="10" height="15" as="geometry" />
        </mxCell>
        <mxCell id="-DyHvY6kDZJPBN4xPlUY-97" style="edgeStyle=orthogonalEdgeStyle;rounded=0;orthogonalLoop=1;jettySize=auto;html=1;exitX=0;exitY=0.5;exitDx=0;exitDy=0;entryX=1;entryY=0.5;entryDx=0;entryDy=0;endArrow=none;endFill=0;startArrow=classic;startFill=1;" parent="1" source="-DyHvY6kDZJPBN4xPlUY-95" target="-DyHvY6kDZJPBN4xPlUY-28" edge="1">
          <mxGeometry relative="1" as="geometry">
            <Array as="points">
              <mxPoint x="580" y="372" />
              <mxPoint x="580" y="350" />
            </Array>
          </mxGeometry>
        </mxCell>
        <mxCell id="-DyHvY6kDZJPBN4xPlUY-93" value="" style="shape=trapezoid;perimeter=trapezoidPerimeter;whiteSpace=wrap;html=1;fixedSize=1;rotation=90;" parent="1" vertex="1">
          <mxGeometry x="568" y="337.25" width="90" height="25" as="geometry" />
        </mxCell>
        <mxCell id="-DyHvY6kDZJPBN4xPlUY-94" value="&lt;font style=&quot;font-size: 13px;&quot;&gt;$$0$$&lt;/font&gt;" style="text;html=1;strokeColor=none;fillColor=none;align=center;verticalAlign=middle;whiteSpace=wrap;rounded=0;fontSize=13;" parent="1" vertex="1">
          <mxGeometry x="601" y="319.75" width="20" height="15" as="geometry" />
        </mxCell>
        <mxCell id="-DyHvY6kDZJPBN4xPlUY-95" value="&lt;font style=&quot;font-size: 13px;&quot;&gt;$$1$$&lt;/font&gt;" style="text;html=1;strokeColor=none;fillColor=none;align=center;verticalAlign=middle;whiteSpace=wrap;rounded=0;fontSize=13;" parent="1" vertex="1">
          <mxGeometry x="601" y="364.25" width="20" height="15" as="geometry" />
        </mxCell>
        <mxCell id="-DyHvY6kDZJPBN4xPlUY-105" style="rounded=0;orthogonalLoop=1;jettySize=auto;html=1;exitX=0;exitY=0;exitDx=0;exitDy=0;entryX=1;entryY=0.5;entryDx=0;entryDy=0;endArrow=none;endFill=0;startArrow=classic;startFill=1;" parent="1" source="-DyHvY6kDZJPBN4xPlUY-113" target="-DyHvY6kDZJPBN4xPlUY-6" edge="1">
          <mxGeometry relative="1" as="geometry">
            <mxPoint x="672.4999999999998" y="95" as="sourcePoint" />
            <Array as="points">
              <mxPoint x="680" y="95" />
            </Array>
          </mxGeometry>
        </mxCell>
        <mxCell id="-DyHvY6kDZJPBN4xPlUY-107" style="edgeStyle=orthogonalEdgeStyle;rounded=0;orthogonalLoop=1;jettySize=auto;html=1;exitX=0;exitY=0.5;exitDx=0;exitDy=0;entryX=1;entryY=0.5;entryDx=0;entryDy=0;endArrow=none;endFill=0;startArrow=classic;startFill=1;" parent="1" source="-DyHvY6kDZJPBN4xPlUY-109" target="-DyHvY6kDZJPBN4xPlUY-17" edge="1">
          <mxGeometry relative="1" as="geometry">
            <Array as="points">
              <mxPoint x="570" y="140" />
              <mxPoint x="570" y="630" />
            </Array>
          </mxGeometry>
        </mxCell>
        <mxCell id="-DyHvY6kDZJPBN4xPlUY-112" style="rounded=0;orthogonalLoop=1;jettySize=auto;html=1;exitX=1;exitY=0.5;exitDx=0;exitDy=0;entryX=0;entryY=1;entryDx=0;entryDy=0;" parent="1" source="-DyHvY6kDZJPBN4xPlUY-109" target="-DyHvY6kDZJPBN4xPlUY-113" edge="1">
          <mxGeometry relative="1" as="geometry">
            <mxPoint x="672.4999999999998" y="140" as="targetPoint" />
            <Array as="points">
              <mxPoint x="680" y="140" />
            </Array>
          </mxGeometry>
        </mxCell>
        <mxCell id="-DyHvY6kDZJPBN4xPlUY-109" value="$$&amp;lt;&amp;lt;2$$" style="whiteSpace=wrap;html=1;aspect=fixed;" parent="1" vertex="1">
          <mxGeometry x="600" y="119" width="42" height="42" as="geometry" />
        </mxCell>
        <mxCell id="-DyHvY6kDZJPBN4xPlUY-119" style="edgeStyle=orthogonalEdgeStyle;rounded=0;orthogonalLoop=1;jettySize=auto;html=1;exitX=1;exitY=0.5;exitDx=0;exitDy=0;entryX=0.75;entryY=1;entryDx=0;entryDy=0;" parent="1" source="-DyHvY6kDZJPBN4xPlUY-113" target="-DyHvY6kDZJPBN4xPlUY-116" edge="1">
          <mxGeometry relative="1" as="geometry" />
        </mxCell>
        <mxCell id="-DyHvY6kDZJPBN4xPlUY-113" value="&lt;font style=&quot;font-size: 17px;&quot;&gt;$$+$$&lt;/font&gt;" style="ellipse;whiteSpace=wrap;html=1;aspect=fixed;" parent="1" vertex="1">
          <mxGeometry x="700" y="105" width="30" height="30" as="geometry" />
        </mxCell>
        <mxCell id="-DyHvY6kDZJPBN4xPlUY-120" style="edgeStyle=orthogonalEdgeStyle;rounded=0;orthogonalLoop=1;jettySize=auto;html=1;exitX=0.25;exitY=1;exitDx=0;exitDy=0;endArrow=oval;endFill=1;startArrow=classic;startFill=1;" parent="1" source="-DyHvY6kDZJPBN4xPlUY-116" edge="1">
          <mxGeometry relative="1" as="geometry">
            <mxPoint x="680" y="95" as="targetPoint" />
          </mxGeometry>
        </mxCell>
        <mxCell id="-DyHvY6kDZJPBN4xPlUY-124" style="edgeStyle=orthogonalEdgeStyle;rounded=0;orthogonalLoop=1;jettySize=auto;html=1;exitX=0.5;exitY=0;exitDx=0;exitDy=0;entryX=0;entryY=0.5;entryDx=0;entryDy=0;" parent="1" source="-DyHvY6kDZJPBN4xPlUY-116" target="-DyHvY6kDZJPBN4xPlUY-122" edge="1">
          <mxGeometry relative="1" as="geometry" />
        </mxCell>
        <mxCell id="-DyHvY6kDZJPBN4xPlUY-116" value="" style="shape=trapezoid;perimeter=trapezoidPerimeter;whiteSpace=wrap;html=1;fixedSize=1;rotation=90;size=10;" parent="1" vertex="1">
          <mxGeometry x="748.5" y="97.5" width="50" height="20" as="geometry" />
        </mxCell>
        <mxCell id="-DyHvY6kDZJPBN4xPlUY-117" value="&lt;font style=&quot;font-size: 13px;&quot;&gt;$$0$$&lt;/font&gt;" style="text;html=1;strokeColor=none;fillColor=none;align=center;verticalAlign=middle;whiteSpace=wrap;rounded=0;fontSize=13;" parent="1" vertex="1">
          <mxGeometry x="764" y="87.5" width="14" height="15" as="geometry" />
        </mxCell>
        <mxCell id="-DyHvY6kDZJPBN4xPlUY-118" value="&lt;font style=&quot;font-size: 13px;&quot;&gt;$$1$$&lt;/font&gt;" style="text;html=1;strokeColor=none;fillColor=none;align=center;verticalAlign=middle;whiteSpace=wrap;rounded=0;fontSize=13;" parent="1" vertex="1">
          <mxGeometry x="763" y="112.5" width="17" height="15" as="geometry" />
        </mxCell>
        <mxCell id="-DyHvY6kDZJPBN4xPlUY-125" style="edgeStyle=orthogonalEdgeStyle;rounded=0;orthogonalLoop=1;jettySize=auto;html=1;exitX=0.5;exitY=0;exitDx=0;exitDy=0;entryX=0;entryY=0.5;entryDx=0;entryDy=0;" parent="1" source="-DyHvY6kDZJPBN4xPlUY-121" target="-DyHvY6kDZJPBN4xPlUY-1" edge="1">
          <mxGeometry relative="1" as="geometry">
            <Array as="points">
              <mxPoint x="856" y="120" />
              <mxPoint x="856" y="40" />
              <mxPoint x="120" y="40" />
              <mxPoint x="120" y="420" />
            </Array>
          </mxGeometry>
        </mxCell>
        <mxCell id="-DyHvY6kDZJPBN4xPlUY-128" style="edgeStyle=orthogonalEdgeStyle;rounded=0;orthogonalLoop=1;jettySize=auto;html=1;exitX=0.75;exitY=1;exitDx=0;exitDy=0;entryX=0.5;entryY=0;entryDx=0;entryDy=0;endArrow=none;endFill=0;startArrow=classic;startFill=1;" parent="1" source="-DyHvY6kDZJPBN4xPlUY-121" target="-DyHvY6kDZJPBN4xPlUY-2" edge="1">
          <mxGeometry relative="1" as="geometry">
            <mxPoint x="320" y="340" as="targetPoint" />
            <Array as="points">
              <mxPoint x="800" y="132" />
              <mxPoint x="800" y="170" />
              <mxPoint x="270" y="170" />
            </Array>
          </mxGeometry>
        </mxCell>
        <mxCell id="-DyHvY6kDZJPBN4xPlUY-121" value="" style="shape=trapezoid;perimeter=trapezoidPerimeter;whiteSpace=wrap;html=1;fixedSize=1;rotation=90;size=10;" parent="1" vertex="1">
          <mxGeometry x="801" y="110" width="50" height="20" as="geometry" />
        </mxCell>
        <mxCell id="-DyHvY6kDZJPBN4xPlUY-122" value="&lt;font style=&quot;font-size: 13px;&quot;&gt;$$0$$&lt;/font&gt;" style="text;html=1;strokeColor=none;fillColor=none;align=center;verticalAlign=middle;whiteSpace=wrap;rounded=0;fontSize=13;" parent="1" vertex="1">
          <mxGeometry x="816.5" y="100" width="14" height="15" as="geometry" />
        </mxCell>
        <mxCell id="-DyHvY6kDZJPBN4xPlUY-123" value="&lt;font style=&quot;font-size: 13px;&quot;&gt;$$1$$&lt;/font&gt;" style="text;html=1;strokeColor=none;fillColor=none;align=center;verticalAlign=middle;whiteSpace=wrap;rounded=0;fontSize=13;" parent="1" vertex="1">
          <mxGeometry x="814.5" y="125" width="17" height="15" as="geometry" />
        </mxCell>
        <mxCell id="_HiC3QpoWGhACgBkYKgx-2" style="edgeStyle=orthogonalEdgeStyle;rounded=0;orthogonalLoop=1;jettySize=auto;html=1;exitX=0.5;exitY=1;exitDx=0;exitDy=0;entryX=0.5;entryY=0;entryDx=0;entryDy=0;" parent="1" source="_HiC3QpoWGhACgBkYKgx-1" target="-DyHvY6kDZJPBN4xPlUY-34" edge="1">
          <mxGeometry relative="1" as="geometry" />
        </mxCell>
        <mxCell id="_HiC3QpoWGhACgBkYKgx-1" value="$$\text{ALU Control}$$" style="rounded=1;whiteSpace=wrap;html=1;" parent="1" vertex="1">
          <mxGeometry x="695.87" y="198.37" width="90.25" height="49.63" as="geometry" />
        </mxCell>
        <mxCell id="_HiC3QpoWGhACgBkYKgx-4" style="edgeStyle=orthogonalEdgeStyle;rounded=0;orthogonalLoop=1;jettySize=auto;html=1;exitX=0;exitY=0.75;exitDx=0;exitDy=0;endArrow=oval;endFill=1;startArrow=classic;startFill=1;" parent="1" source="_HiC3QpoWGhACgBkYKgx-1" edge="1">
          <mxGeometry relative="1" as="geometry">
            <mxPoint x="400" y="630" as="sourcePoint" />
            <mxPoint x="350" y="590" as="targetPoint" />
            <Array as="points">
              <mxPoint x="660" y="236" />
              <mxPoint x="660" y="590" />
              <mxPoint x="350" y="590" />
            </Array>
          </mxGeometry>
        </mxCell>
      </root>
    </mxGraphModel>
  </diagram>
</mxfile>
